 <svg width="36" height="36" viewBox="0 0 36 36" fill="none" xmlns="http://www.w3.org/2000/svg">
      <path
        fillRule="evenodd"
        clipRule="evenodd"
        d="M0 18.0003C0 8.05883 8.05883 0 18.0002 0C27.9412 0 36 8.05883 36 18.0003C36 27.9412 27.9412 36 18.0002 36C8.05883 36 0 27.9412 0 18.0003ZM16.3182 25.9736L29.8695 12.4223C30.531 11.7607 30.531 10.6882 29.8695 10.0268C29.2078 9.36524 28.1352 9.36524 27.4739 10.0268L15.1206 22.3802L8.52637 15.7862C7.86502 15.1244 6.79226 15.1244 6.13069 15.7862C5.46943 16.4474 5.46943 17.52 6.13069 18.1816L13.9226 25.9736C14.2534 26.3043 14.6868 26.4695 15.1206 26.4695C15.5539 26.4695 15.9876 26.3043 16.3182 25.9736Z"
        fill="red"
      />
    </svg>